<?xml version="1.0" ?><svg viewBox="0 0 64 64" xmlns="http://www.w3.org/2000/svg"><g id="solid"><path d="M44.95,56H17a1,1,0,0,1-1-1V51H12a1,1,0,0,1-1-1V22a1,1,0,0,1,1-1h4V17a1,1,0,0,1,1-1H44V13H8V59H47.356A9.042,9.042,0,0,1,44.95,56ZM11,16h2v2H11Zm2,40H11V54h2Z"/><path d="M44,23H23v4a1,1,0,0,1-1,1H18V44h4a1,1,0,0,1,1,1v4H44V46H27a1,1,0,0,1-1-1V41H22a1,1,0,0,1-1-1V32a1,1,0,0,1,1-1h4V27a1,1,0,0,1,1-1H44Z"/><path d="M44,44V28H28v4a1,1,0,0,1-1,1H23v6h4a1,1,0,0,1,1,1v4Z"/><path d="M44.232,54A8.971,8.971,0,0,1,44,52V51H22a1,1,0,0,1-1-1V46H17a1,1,0,0,1-1-1V27a1,1,0,0,1,1-1h4V22a1,1,0,0,1,1-1H44V18H18v4a1,1,0,0,1-1,1H13V49h4a1,1,0,0,1,1,1v4Z"/><path d="M53,45a7,7,0,1,0,7,7A7.008,7.008,0,0,0,53,45Zm0,12a5,5,0,1,1,5-5A5.006,5.006,0,0,1,53,57Z"/><path d="M57.951,7.044A7.005,7.005,0,0,0,46,12V46.356a8.978,8.978,0,0,1,14,0V12A7,7,0,0,0,57.951,7.044Z"/><circle cx="53" cy="52" r="3"/><rect height="2" width="4" x="2" y="13"/><rect height="2" width="4" x="2" y="17"/><rect height="2" width="4" x="2" y="21"/><rect height="2" width="4" x="2" y="25"/><rect height="2" width="4" x="2" y="29"/><rect height="2" width="4" x="2" y="33"/><rect height="2" width="4" x="2" y="37"/><rect height="2" width="4" x="2" y="41"/><rect height="2" width="4" x="2" y="45"/><rect height="2" width="4" x="2" y="49"/><rect height="2" width="4" x="2" y="53"/><rect height="2" width="4" x="2" y="57"/></g></svg>