<?xml version="1.0" ?><svg data-name="Layer 1" id="Layer_1" viewBox="0 0 128 128" xmlns="http://www.w3.org/2000/svg"><title/><path d="M126,49.77h-5.78l1.07-2.05a1.93,1.93,0,0,0-.08-1.92,2,2,0,0,0-1.71-.94H41.73a9.17,9.17,0,0,0-3.64-4.74,10.13,10.13,0,0,0-8.68-1.77,2,2,0,0,0-1,.72l-26,36,.09.06a8.7,8.7,0,0,0-2.46,6A8.91,8.91,0,0,0,8.22,90a2,2,0,0,0,.28,0h.55l80-.38a1.83,1.83,0,0,0,.9,0l8.32,0a2,2,0,0,0,1.77-1.07l1-1.94h7.67a2,2,0,1,0,0-3.92h-5.63l2.24-4.31H113a2,2,0,1,0,0-3.92h-5.55l2.24-4.31h7.51a2,2,0,1,0,0-3.92h-5.47l2.41-4.63h8.4a2,2,0,1,0,0-3.92h-6.36l2-3.92H126a2,2,0,1,0,0-3.92ZM9,86.08a4.91,4.91,0,1,1,5-4.91A5,5,0,0,1,9,86.08Zm23.88-7.72-.81,2.23-1.89-1.26-3.1.8L28.84,78l-1.11-1.73,3-.06,2.42-1.87.07,2.1,2.6.58Zm-15.57-.57a9,9,0,0,0-8.07-5.43L31.23,42a6.77,6.77,0,0,1,4.51,1.36,5.11,5.11,0,0,1,2.2,2.88ZM46,59.41l-1.89-1.26-3.1.8,1.77-2.14-1.11-1.73,3-.06L47,53.14l.07,2.1,2.6.58-2.93,1.36Zm24,19a2,2,0,0,1-1.26,1.21A2,2,0,0,1,67,79.38l-6.21-4.16L50.2,78A2,2,0,0,1,48,77.13a1.93,1.93,0,0,1,.13-2.3L53.76,68l-3.33-5.22a1.93,1.93,0,0,1-.06-2,2,2,0,0,1,1.72-1l10.33-.21,8.41-6.51a2,2,0,0,1,2.08-.24,2,2,0,0,1,1.16,1.71l.22,6.25,8.1,1.8a2,2,0,0,1,1.55,1.7,2,2,0,0,1-1.13,2L72.73,71Zm14.6,1.13-.81,2.23-1.89-1.26-3.1.8,1.77-2.14-1.11-1.73,3-.06,2.42-1.87.07,2.1,2.6.58Zm6.57-24.23,3-.06,2.42-1.87.07,2.1,2.6.58-2.93,1.36-.81,2.23L93.62,58.4l-3.1.8,1.77-2.14Zm5.91,30.33-4.21,0,19.22-36.89h4.15Z"/><path d="M70.34,62.45l-.14-3.89-5.84,4.52a2,2,0,0,1-1.2.42l-7.48.15,2.21,3.47a1.93,1.93,0,0,1-.14,2.28l-2.68,3.25,5.56-1.43a2,2,0,0,1,1.64.28l4.83,3.23,2.13-5.84a2,2,0,0,1,1-1.11l5.58-2.59-3.95-.87A2,2,0,0,1,70.34,62.45Z"/></svg>